{
    "asset" : {
        "generator" : "Khronos glTF Blender I/O v1.0.5",
        "version" : "2.0"
    },
    "scene" : 0,
    "scenes" : [
        {
            "name" : "Scene",
            "nodes" : [
                0
            ]
        }
    ],
    "nodes" : [
        {
            "mesh" : 0,
            "name" : "cloud.001",
            "rotation" : [
                0,
                0.16342613101005554,
                0,
                0.9865555763244629
            ],
            "scale" : [
                0.19023697078227997,
                0.15261335670948029,
                0.15744122862815857
            ],
            "translation" : [
                -4.921683311462402,
                5.072592735290527,
                4.646663188934326
            ]
        }
    ],
    "materials" : [
        {
            "doubleSided" : true,
            "name" : "Material.001",
            "pbrMetallicRoughness" : {
                "baseColorFactor" : [
                    0.800000011920929,
                    0.800000011920929,
                    0.800000011920929,
                    1
                ],
                "metallicFactor" : 0,
                "roughnessFactor" : 0.16818180680274963
            }
        }
    ],
    "meshes" : [
        {
            "name" : "Sphere.008",
            "primitives" : [
                {
                    "attributes" : {
                        "POSITION" : 0,
                        "NORMAL" : 1,
                        "TEXCOORD_0" : 2
                    },
                    "indices" : 3,
                    "material" : 0
                }
            ]
        }
    ],
    "accessors" : [
        {
            "bufferView" : 0,
            "componentType" : 5126,
            "count" : 4472,
            "max" : [
                0.5308634638786316,
                0.5283057689666748,
                0.5786067247390747
            ],
            "min" : [
                -1.052655816078186,
                -0.34964242577552795,
                -0.39883673191070557
            ],
            "type" : "VEC3"
        },
        {
            "bufferView" : 1,
            "componentType" : 5126,
            "count" : 4472,
            "type" : "VEC3"
        },
        {
            "bufferView" : 2,
            "componentType" : 5126,
            "count" : 4472,
            "type" : "VEC2"
        },
        {
            "bufferView" : 3,
            "componentType" : 5123,
            "count" : 23040,
            "type" : "SCALAR"
        }
    ],
    "bufferViews" : [
        {
            "buffer" : 0,
            "byteLength" : 53664,
            "byteOffset" : 0
        },
        {
            "buffer" : 0,
            "byteLength" : 53664,
            "byteOffset" : 53664
        },
        {
            "buffer" : 0,
            "byteLength" : 35776,
            "byteOffset" : 107328
        },
        {
            "buffer" : 0,
            "byteLength" : 46080,
            "byteOffset" : 143104
        }
    ],
    "buffers" : [
        {
            "byteLength" : 189184,
            "uri" : "data:application/octet-stream;base64,"
        }
    ]
}
